<svg xmlns="http://www.w3.org/2000/svg" width="1200" height="300" viewBox="0 0 1200 300">
  <defs>
    <linearGradient id="g" x1="0" y1="0" x2="1" y2="1">
      <stop offset="0" stop-color="#0B0C10"/>
      <stop offset="1" stop-color="#101218"/>
    </linearGradient>
  </defs>
  <rect width="1200" height="300" fill="url(#g)"/>
  <g stroke="#1C1E26" stroke-width="1">
    <path d="M0 75H1200M0 150H1200M0 225H1200"/>
    <path d="M150 0V300M300 0V300M450 0V300M600 0V300M750 0V300M900 0V300M1050 0V300"/>
  </g>
  <text x="600" y="138" text-anchor="middle" font-family="ui-monospace, SFMono-Regular, Menlo, Consolas, monospace" font-size="64" font-weight="700" fill="#F7F8F8" letter-spacing="-1">theme-park.md</text>
  <text x="600" y="178" text-anchor="middle" font-family="ui-sans-serif, system-ui, -apple-system, sans-serif" font-size="18" fill="#8A8F98">a park of UI themes, written entirely in markdown</text>
  <g transform="translate(420,212)">
    <rect x="0"   y="0" width="28" height="14" rx="3" fill="#6C5CE7"/>
    <rect x="36"  y="0" width="28" height="14" rx="3" fill="#5E6AD2"/>
    <rect x="72"  y="0" width="28" height="14" rx="3" fill="#EAEAEA"/>
    <rect x="108" y="0" width="28" height="14" rx="3" fill="#2383E2"/>
    <rect x="144" y="0" width="28" height="14" rx="3" fill="#3182F6"/>
    <rect x="180" y="0" width="28" height="14" rx="3" fill="#5266EB"/>
    <rect x="216" y="0" width="28" height="14" rx="3" fill="#CDE82A"/>
    <rect x="252" y="0" width="28" height="14" rx="3" fill="#F6F5E8"/>
    <rect x="288" y="0" width="28" height="14" rx="3" fill="#FF7500"/>
    <rect x="324" y="0" width="28" height="14" rx="3" fill="#000000" stroke="#3A3D46"/>
  </g>
</svg>
